<?xml version="1.0" standalone="no"?><!DOCTYPE svg PUBLIC "-//W3C//DTD SVG 1.1//EN" "http://www.w3.org/Graphics/SVG/1.1/DTD/svg11.dtd"><svg t="1606299793496" class="icon" viewBox="0 0 1024 1024" version="1.1" xmlns="http://www.w3.org/2000/svg" p-id="2764" xmlns:xlink="http://www.w3.org/1999/xlink" width="200" height="200"><defs><style type="text/css"></style></defs><path d="M512 960C264.576 960 64 759.424 64 512S264.576 64 512 64s448 200.576 448 448-200.576 448-448 448z m0-64c212.077 0 384-171.923 384-384S724.077 128 512 128 128 299.923 128 512s171.923 384 384 384z m134.51-329.505L442.78 691.96c-15.048 9.267-34.76 4.58-44.028-10.468a32 32 0 0 1-4.752-16.78V359.288c0-17.673 14.327-32 32-32a32 32 0 0 1 16.78 4.752l203.73 125.465c30.097 18.535 39.47 57.958 20.935 88.055a64 64 0 0 1-20.935 20.935z" p-id="2765"></path></svg>