<?xml version="1.0" standalone="no"?><!DOCTYPE svg PUBLIC "-//W3C//DTD SVG 1.1//EN" "http://www.w3.org/Graphics/SVG/1.1/DTD/svg11.dtd"><svg class="icon" width="16px" height="16.00px" viewBox="0 0 1024 1024" version="1.1" xmlns="http://www.w3.org/2000/svg"><path d="M540.032 70.976c-245.952 0-446.016 200.064-446.016 446.016s200.064 446.016 446.016 446.016 446.016-200.064 446.016-446.016-200.064-446.016-446.016-446.016z m0 828.032c-210.624 0-382.016-171.392-382.016-382.016s171.392-382.016 382.016-382.016 382.016 171.392 382.016 382.016-171.392 382.016-382.016 382.016z" fill="#8a8a8a" /><path d="M417.152 643.84c0 35.2 24.96 49.6 55.424 32l219.584-126.784c30.528-17.6 30.528-46.4 0-64L472.576 358.208c-30.528-17.6-55.424-3.2-55.424 32v253.632z" fill="#8a8a8a" /></svg>