<?xml version="1.0" standalone="no"?><!DOCTYPE svg PUBLIC "-//W3C//DTD SVG 1.1//EN" "http://www.w3.org/Graphics/SVG/1.1/DTD/svg11.dtd"><svg t="1604908836365" class="icon" viewBox="0 0 1024 1024" version="1.1" xmlns="http://www.w3.org/2000/svg" p-id="14247" xmlns:xlink="http://www.w3.org/1999/xlink" width="200" height="200"><defs><style type="text/css"></style></defs><path d="M511 724.7c-79.5 0-154.3-31-210.5-87.2-56.2-56.2-87.2-131-87.2-210.5s31-154.3 87.2-210.5 131-87.2 210.5-87.2 154.3 31 210.5 87.2 87.2 131 87.2 210.5-31 154.3-87.2 210.5c-56.2 56.3-131 87.2-210.5 87.2z m0-545.4c-136.6 0-247.7 111.1-247.7 247.7S374.4 674.7 511 674.7 758.7 563.6 758.7 427 647.6 179.3 511 179.3z" p-id="14248" fill="#8a8a8a"></path><path d="M243 895.5l59.4-266 48.8 10.9L310.7 822l194.8-60.8 206.4 61.1L663 632.5l48.4-12.5 71 275.3-276.5-81.8zM512 268.8l46.9 94.9L663.7 379l-75.9 73.9 17.9 104.4L512 508l-93.7 49.3 17.9-104.4-75.9-73.9 104.8-15.3z" p-id="14249" fill="#8a8a8a"></path></svg>