<?xml version="1.0" standalone="no"?><!DOCTYPE svg PUBLIC "-//W3C//DTD SVG 1.1//EN" "http://www.w3.org/Graphics/SVG/1.1/DTD/svg11.dtd"><svg t="1606548247897" class="icon" viewBox="0 0 1024 1024" version="1.1" xmlns="http://www.w3.org/2000/svg" p-id="5561" xmlns:xlink="http://www.w3.org/1999/xlink" width="200" height="200"><defs><style type="text/css"></style></defs><path d="M739.7 899.7H435.1c-7.6 0-13.8-6.2-13.8-13.8s6.2-13.8 13.8-13.8h304.6c10.1 0 19-6.8 21.5-16.6l88.4-341.6c2.1-8.2 0.4-16.6-4.7-23.2-5.1-6.6-12.8-10.4-21.1-10.4h-225c-17.7 0-33.7-9-42.7-24.2-9.1-15.3-9.5-33.9-1-49.6 11.8-21.9 19.1-43.4 21.8-63.8 5.5-43.1 6.5-121.3-6.2-155.9-5.7-16.1-11.3-31.6-38-33.3-29.7 2.3-34.1 20.1-37 31.9-2 8.2-4.1 17.6-6.3 27.9-9 41.2-21.4 97.5-44.6 138.1-44.5 77.6-143.1 124.9-146.2 126.9-6.4 4-15 2.2-19.1-4.2-4.1-6.5-2.2-15 4.2-19.1 0.7-0.5 96.1-45.7 137.1-117.3 21.2-36.9 33-90.9 41.6-130.3 2.3-10.5 4.4-20.2 6.5-28.5 3.3-13.4 12-49 63.7-52.9 46.7 2.9 57.9 34.2 63.3 49.3 17.2 47 13 135.3 8.4 171-3 23.8-11.4 48.5-24.9 73.4-3.8 7.1-3.7 15.5 0.4 22.3 4.1 6.8 11 10.7 19 10.7h225.1c16.9 0 32.6 7.7 43 21.1 10.4 13.4 13.8 30.5 9.6 46.9L788 862.2c-5.7 22.2-25.6 37.5-48.3 37.5z" fill="#d81e06" p-id="5562"></path><path d="M281.3 900.2h-92.1c-22.9 0-41.5-18.6-41.5-41.5V494.4c0-22.9 18.6-41.5 41.5-41.5h92.1c22.9 0 41.5 18.6 41.5 41.5v364.3c0 22.9-18.6 41.5-41.5 41.5z m-92.1-419.6c-7.6 0-13.8 6.2-13.8 13.8v364.3c0 7.6 6.2 13.8 13.8 13.8h92.1c7.6 0 13.8-6.2 13.8-13.8V494.4c0-7.6-6.2-13.8-13.8-13.8h-92.1z" fill="#d81e06" p-id="5563"></path></svg>