<?xml version="1.0" standalone="no"?><!DOCTYPE svg PUBLIC "-//W3C//DTD SVG 1.1//EN" "http://www.w3.org/Graphics/SVG/1.1/DTD/svg11.dtd"><svg class="icon" width="16px" height="16.00px" viewBox="0 0 1024 1024" version="1.1" xmlns="http://www.w3.org/2000/svg"><path d="M913.48992 182.6304H97.26976v658.6368h829.37856v-658.6368h-13.1584z m-105.728 440.1152v205.4144H686.39744v-205.4144h27.648v-426.9056h56.80128v426.9056h36.864z m-554.79296 0v-426.9056h56.832v426.9056h36.93568v205.4144h-121.4464v-205.4144h27.648z m126.04416 0h27.70944v-426.9056h56.7808v426.9056h36.92544v205.4144H379.01312v-205.4144z m153.7536 0h27.648v-426.9056h56.73984v426.9056h36.92544v205.4144H532.76672v-205.4144z m-422.30784-426.9056h45.66016v426.9056h36.9664v205.4144h-82.5856v-632.32z m803.03104 632.32h-73.33888v-205.4144h27.648v-426.9056h45.71136v632.32z" fill="#8a8a8a" /></svg>