<?xml version="1.0" standalone="no"?><!DOCTYPE svg PUBLIC "-//W3C//DTD SVG 1.1//EN" "http://www.w3.org/Graphics/SVG/1.1/DTD/svg11.dtd"><svg class="icon" width="16px" height="16.00px" viewBox="0 0 1024 1024" version="1.1" xmlns="http://www.w3.org/2000/svg"><path d="M773.2 564V535.2c0-69.8-27.2-135.4-76.5-184.7S581.7 274 512 274c-69.8 0-135.4 27.2-184.7 76.5s-76.5 115-76.5 184.7V564c-14.5 14.1-23.5 33.9-23.5 55.7 0 42.9 34.9 77.8 77.8 77.8 1 0 1.9-0.1 2.8-0.4v31.3c0 12 9.7 21.7 21.7 21.7h41.7c12 0 21.7-9.7 21.7-21.7V496.8c0-12-9.7-21.7-21.7-21.7h-41.7c-12 0-21.7 9.7-21.7 21.7v45.5c-0.9-0.3-1.8-0.4-2.8-0.4-12.3 0-24 2.9-34.4 8v-14.7c0-133 108.2-241.3 241.3-241.3 133 0 241.3 108.2 241.3 241.3v14.7c-10.4-5.1-22-8-34.4-8-1 0-1.9 0.1-2.8 0.4v-45.5c0-12-9.7-21.7-21.7-21.7h-41.7c-12 0-21.7 9.7-21.7 21.7v231.7c0 12 9.7 21.7 21.7 21.7h41.7c12 0 21.7-9.7 21.7-21.7v-31.3c0.9 0.3 1.8 0.4 2.8 0.4 42.9 0 77.8-34.9 77.8-77.8 0-21.9-9-41.6-23.5-55.8z m-445.3-67.2c0-0.9 0.8-1.7 1.7-1.7h41.7c0.9 0 1.7 0.8 1.7 1.7v231.7c0 0.9-0.8 1.7-1.7 1.7h-41.7c-0.9 0-1.7-0.8-1.7-1.7V496.8z m-20 64.6v116.5c-0.9-0.3-1.8-0.4-2.8-0.4-31.9 0-57.8-25.9-57.8-57.8s25.9-57.8 57.8-57.8c1-0.1 1.9-0.2 2.8-0.5z m388.2 167c0 0.9-0.8 1.7-1.7 1.7h-41.7c-0.9 0-1.7-0.8-1.7-1.7V496.8c0-0.9 0.8-1.7 1.7-1.7h41.7c0.9 0 1.7 0.8 1.7 1.7v231.6z m22.8-50.9c-1 0-1.9 0.1-2.8 0.4V561.4c0.9 0.3 1.8 0.4 2.8 0.4 31.9 0 57.8 25.9 57.8 57.8 0 32-25.9 57.9-57.8 57.9z" fill="#cdcdcd" /></svg>