<?xml version="1.0" standalone="no"?><!DOCTYPE svg PUBLIC "-//W3C//DTD SVG 1.1//EN" "http://www.w3.org/Graphics/SVG/1.1/DTD/svg11.dtd"><svg t="1604908844377" class="icon" viewBox="0 0 1024 1024" version="1.1" xmlns="http://www.w3.org/2000/svg" p-id="14651" xmlns:xlink="http://www.w3.org/1999/xlink" width="200" height="200"><defs><style type="text/css"></style></defs><path d="M957.638 161.559h-862.249c-32.454 0-58.846 26.391-58.846 58.846v603.15c0 32.454 26.391 58.846 58.846 58.846h862.249c32.441 0 58.832-26.391 58.832-58.846v-603.15c0-32.454-26.391-58.846-58.832-58.846zM975.278 212.009c1.229 2.554 1.966 5.379 1.966 8.397v542.406l-344.829-264.929 342.863-285.873zM927.464 200.786l-405.135 337.811-430.421-337.456c1.133-0.205 2.281-0.355 3.482-0.355h832.075zM408.774 499.425l-333.005 262.594v-523.674l333.005 261.079zM957.638 843.175h-862.249c-10.814 0-19.62-8.793-19.62-19.62v-11.591l364.763-287.648 81.852 64.185 0.546 0.655 78.589-65.522 375.712 288.659v11.278c0.014 10.814-8.793 19.606-19.593 19.606z" p-id="14652" fill="#8a8a8a"></path></svg>