<?xml version="1.0" standalone="no"?><!DOCTYPE svg PUBLIC "-//W3C//DTD SVG 1.1//EN" "http://www.w3.org/Graphics/SVG/1.1/DTD/svg11.dtd"><svg t="1604908860134" class="icon" viewBox="0 0 1024 1024" version="1.1" xmlns="http://www.w3.org/2000/svg" p-id="15544" xmlns:xlink="http://www.w3.org/1999/xlink" width="200" height="200"><defs><style type="text/css"></style></defs><path d="M756.385986 581.803809c42.774199-54.392818 66.561975-121.847116 66.561975-191.867866 0-171.46007-139.491984-310.952055-310.952055-310.952055s-310.952055 139.491984-310.952055 310.952055c0 70.028936 23.77345 137.490398 66.547649 191.875029-92.967368 73.611531-203.841571 230.290967-203.841571 318.646294 0 24.607444 19.951401 44.558845 44.558845 44.558845s44.558845-19.951401 44.558845-44.558845c0-64.241117 130.114406-237.993392 201.76733-269.439592 13.953803-6.121418 23.809265-18.957771 26.130124-34.020838 2.320858-15.063067-3.213181-30.264281-14.678304-40.300868-48.249911-42.252313-75.925227-103.033631-75.925227-166.760025 0-122.317837 99.516528-221.834364 221.834364-221.834364s221.834364 99.516528 221.834364 221.834364c0 63.712067-27.675316 124.493385-75.946716 166.760025-11.458983 10.037611-16.999163 25.244964-14.678304 40.309054s12.183484 27.89942 26.137287 34.020838c71.66725 31.42471 201.788819 205.175963 201.788819 269.432429 0 24.607444 19.944238 44.558845 44.558845 44.558845 24.614607 0 44.558845-19.951401 44.558845-44.558845C960.249047 812.080449 849.375867 655.408177 756.385986 581.803809z" p-id="15545" fill="#8a8a8a"></path></svg>