<?xml version="1.0" standalone="no"?><!DOCTYPE svg PUBLIC "-//W3C//DTD SVG 1.1//EN" "http://www.w3.org/Graphics/SVG/1.1/DTD/svg11.dtd"><svg class="icon" width="16px" height="16.00px" viewBox="0 0 1024 1024" version="1.1" xmlns="http://www.w3.org/2000/svg"><path d="M790.59 394.56v-55.05H200.07v381.8a132.56 132.56 0 0 0 38 93H127.81v26.14a96.55 96.55 0 0 0 96.44 96.44H766.4a96.55 96.55 0 0 0 96.44-96.44v-26.12H752.56a132.55 132.55 0 0 0 38-93v-59.68h21.57a90.35 90.35 0 0 0 90.25-90.25V394.56zM766.4 896.91H224.25a56.55 56.55 0 0 1-54.72-42.58h651.59a56.55 56.55 0 0 1-54.72 42.58z m-433.32-82.58a93.12 93.12 0 0 1-93-93V379.51h510.51v341.81a93.12 93.12 0 0 1-93 93zM862.41 571.4a50.3 50.3 0 0 1-50.25 50.25h-19.85V434.56h70.1zM325.65 156.5h40v137.63h-40zM477.05 101.45h40v137.63h-40zM628.44 156.5h40v137.63h-40z" fill="#bfbfbf" /></svg>