<?xml version="1.0" standalone="no"?><!DOCTYPE svg PUBLIC "-//W3C//DTD SVG 1.1//EN" "http://www.w3.org/Graphics/SVG/1.1/DTD/svg11.dtd"><svg t="1604908779808" class="icon" viewBox="0 0 1024 1024" version="1.1" xmlns="http://www.w3.org/2000/svg" p-id="11582" xmlns:xlink="http://www.w3.org/1999/xlink" width="200" height="200"><defs><style type="text/css"></style></defs><path d="M483.328 669.696c-24.576 0-49.152-10.24-67.584-28.672l-98.304-98.304c-18.432-18.432-18.432-45.056 0-63.488 18.432-18.432 45.056-18.432 63.488 0l98.304 98.304c2.048 2.048 6.144 2.048 8.192 0l178.176-178.176c18.432-18.432 45.056-18.432 63.488 0 18.432 18.432 18.432 45.056 0 63.488l-178.176 178.176c-18.432 18.432-43.008 28.672-67.584 28.672z" fill="#707070" p-id="11583"></path><path d="M501.76 1024C352.256 1024 61.44 833.536 61.44 602.112V98.304l47.104 2.048c2.048 0 210.944 8.192 370.688-83.968l24.576-14.336 24.576 16.384c131.072 96.256 364.544 81.92 366.592 81.92l47.104-4.096v505.856C942.08 833.536 651.264 1024 501.76 1024zM151.552 190.464v413.696c0 180.224 253.952 331.776 350.208 331.776s350.208-151.552 350.208-331.776V190.464c-77.824 0-235.52-10.24-354.304-83.968C368.64 174.08 223.232 186.368 151.552 190.464z" fill="#707070" p-id="11584"></path></svg>