<?xml version="1.0" standalone="no"?><!DOCTYPE svg PUBLIC "-//W3C//DTD SVG 1.1//EN" "http://www.w3.org/Graphics/SVG/1.1/DTD/svg11.dtd"><svg class="icon" width="16px" height="16.00px" viewBox="0 0 1024 1024" version="1.1" xmlns="http://www.w3.org/2000/svg"><path d="M890.233 419.484c-1.895 0-3.81 0-5.71 0l-28.555 0L855.968 310.982c0-43.782-34.26-43.782-45.68-43.782L524.759 267.2l-36.167-78.042c-5.712-11.42-15.227-17.132-26.65-17.132L153.57 172.026c-34.262 0-59.007 47.587-59.007 72.332l0 586.286c0 28.555 28.55 64.715 59.007 64.715l727.143 0c30.46 0 53.305-34.26 53.305-64.715L934.018 459.456C932.108 440.424 920.688 419.484 890.233 419.484zM798.868 324.304l0 95.18L593.283 419.484l-43.785-95.18L798.868 324.304zM875.008 830.643c0 1.9 0 5.71-1.91 7.615L157.38 838.258c-1.907-1.905-5.712-5.715-5.712-7.615L151.668 244.357c0-3.805 3.805-11.42 7.612-15.225l283.627 0 104.697 230.324c3.81 9.517 15.23 17.135 26.65 17.135l300.754 0L875.008 830.643z" fill="#2c2c2c" /></svg>