<?xml version="1.0" standalone="no"?><!DOCTYPE svg PUBLIC "-//W3C//DTD SVG 1.1//EN" "http://www.w3.org/Graphics/SVG/1.1/DTD/svg11.dtd"><svg t="1606298874391" class="icon" viewBox="0 0 1024 1024" version="1.1" xmlns="http://www.w3.org/2000/svg" p-id="1197" xmlns:xlink="http://www.w3.org/1999/xlink" width="200" height="200"><defs><style type="text/css"></style></defs><path d="M512.159834 619.104064 651.236509 480.027388 693.60456 522.395337 520.19803 695.801868 512.164126 703.835772 512.159834 703.831479 512.155542 703.835772 330.71521 522.395337 373.083261 480.027388Z" p-id="1198"></path><path d="M480.027388 64.383234l63.945223 0 0 575.507315-63.945223 0 0-575.507315Z" p-id="1199"></path><path d="M128.328486 480.027374 128.328486 863.717352C128.328486 881.353326 142.627858 895.671514 160.188903 895.671514L863.811097 895.671514C881.235751 895.671514 895.671514 881.25129 895.671514 863.717352L895.671514 480.027374 927.644141 480.027374 959.616766 480.027374 959.616766 863.717352C959.616766 916.681136 916.437792 959.616766 863.811097 959.616766L160.188903 959.616766C107.276893 959.616766 64.383234 916.634343 64.383234 863.717352L64.383234 480.027374 96.35586 480.027374 128.328486 480.027374Z" p-id="1200"></path></svg>